<?xml version="1.0" encoding="UTF-8"?>
<svg xmlns="http://www.w3.org/2000/svg" viewBox="0 0 1254 1254" width="1254" height="1254">
  <style>
    .ink{fill:#232D42}
    .acc{fill:#3159C9}
    @media (prefers-color-scheme: dark){ .ink{fill:#EEF1F8} .acc{fill:#5E80E8} }
  </style>
  <g transform="translate(0,1254) scale(0.1,-0.1)">
    <g class="ink"><path d="M4468 8548 c-9 -7 -209 -355 -445 -773 -236 -418 -555 -978 -708
-1245 -1243 -2168 -1965 -3432 -1965 -3441 0 -5 269 -9 598 -9 l597 0 49 88
c111 196 422 744 476 837 32 55 108 190 170 300 62 110 126 223 143 250 17 28
74 127 127 220 160 281 379 664 435 760 29 50 162 281 295 515 742 1298 751
1313 765 1293 6 -10 98 -175 205 -368 286 -519 292 -530 367 -665 39 -69 100
-179 135 -245 303 -558 818 -1499 894 -1632 145 -254 324 -500 481 -664 532
-554 1245 -842 1978 -798 430 25 793 147 1145 382 425 284 768 765 924 1295
98 334 128 616 111 1055 l-7 197 -1414 0 -1414 0 0 -450 0 -450 895 0 895 0 0
-26 c0 -44 -67 -229 -112 -311 -118 -216 -296 -387 -529 -508 -225 -117 -432
-161 -704 -152 -391 14 -710 150 -975 417 -145 146 -233 271 -360 516 -35 65
-86 162 -115 214 -29 52 -104 187 -166 300 -62 113 -157 286 -213 385 -119
214 -209 376 -321 580 -45 83 -119 218 -165 300 -45 83 -129 236 -185 340 -56
105 -151 278 -210 385 -59 107 -187 341 -285 520 -98 179 -212 386 -253 460
l-75 135 -524 3 c-409 2 -527 -1 -540 -10z"/><path d="M8775 8514 c-309 -31 -524 -82 -773 -186 -394 -163 -753 -446 -1010
-796 -81 -109 -175 -268 -255 -427 l-65 -131 196 -355 c429 -774 416 -753 423
-722 4 15 7 45 8 67 2 68 51 288 91 407 56 170 154 361 256 499 249 341 633
581 1029 645 337 54 637 7 938 -146 190 -96 321 -194 483 -357 l99 -100 360
284 c198 156 364 290 369 298 13 18 -69 121 -219 275 -379 390 -875 643 -1425
726 -101 15 -423 27 -505 19z"/></g>
    <g class="acc"><path d="M4967 5597 c-22 -43 -72 -131 -106 -187 -16 -25 -43 -72 -61 -105
-18 -33 -80 -143 -138 -245 -115 -202 -176 -310 -232 -410 -20 -36 -139 -247
-265 -470 -125 -223 -263 -468 -305 -545 -43 -77 -127 -230 -189 -339 -61
-110 -109 -201 -108 -203 2 -2 639 -2 1415 -1 l1411 3 -90 165 c-50 91 -132
242 -184 335 -51 94 -103 188 -115 210 -13 22 -72 130 -133 240 -118 214 -181
328 -244 440 -43 77 -308 552 -395 710 -143 258 -240 430 -242 432 -1 2 -10
-12 -19 -30z"/><path d="M5800 10350 c-544 -50 -1018 -184 -1485 -420 -972 -490 -1695 -1337
-2039 -2385 -79 -241 -143 -546 -172 -815 -20 -188 -15 -662 9 -825 8 -55 18
-124 22 -153 4 -29 10 -51 12 -49 2 3 -4 69 -13 148 -22 176 -25 599 -6 764
54 463 150 817 339 1255 156 360 402 744 670 1046 442 499 986 872 1613 1108
979 369 2086 317 3023 -143 337 -165 595 -343 884 -608 l102 -94 -25 -46 c-64
-122 7 -265 140 -280 139 -16 249 118 204 248 -30 87 -96 132 -187 128 l-59
-2 -99 93 c-598 568 -1336 911 -2188 1016 -151 18 -603 27 -745 14z"/><path d="M3395 2777 c566 -606 1301 -979 2165 -1099 149 -21 721 -17 880 5
754 107 1473 452 2015 969 l60 58 -54 0 c-53 0 -56 -2 -140 -73 -296 -253
-658 -477 -1006 -624 -268 -113 -622 -209 -900 -243 -337 -42 -781 -26 -1104
41 -241 49 -494 127 -696 213 -275 118 -636 330 -820 481 -38 32 -113 90 -165
128 -95 70 -244 183 -310 235 -19 15 15 -26 75 -91z"/></g>
  </g>
</svg>
