<svg xmlns="http://www.w3.org/2000/svg" width="1200" height="750" viewBox="0 0 1200 750" font-family="Outfit, 'Segoe UI', Arial, sans-serif">
<defs>
<linearGradient id="bg" x1="0" y1="0" x2="1" y2="1"><stop offset="0" stop-color="#0E1320"/><stop offset="1" stop-color="#080A12"/></linearGradient>
<linearGradient id="blue" x1="0" y1="0" x2="1" y2="1"><stop offset="0" stop-color="#4F73D9"/><stop offset="1" stop-color="#3159C9"/></linearGradient>
<radialGradient id="glow" cx="0.7" cy="0.1" r="0.7"><stop offset="0" stop-color="#3159C9" stop-opacity="0.18"/><stop offset="1" stop-color="#3159C9" stop-opacity="0"/></radialGradient>
<marker id="arrow" markerWidth="10" markerHeight="10" refX="7" refY="3" orient="auto"><path d="M0,0 L7,3 L0,6 Z" fill="#4F73D9"/></marker>
<style>@import url('https://fonts.googleapis.com/css2?family=Outfit:wght@400;500;600;700;800');</style>
</defs>
<rect width="1200" height="750" fill="url(#bg)"/>
<rect width="1200" height="750" fill="url(#glow)"/>
<text x="64" y="74" font-size="15" font-weight="700" fill="#7E9BF0" letter-spacing="3">MEDIATRAD</text><text x="64" y="116" font-size="33" font-weight="800" fill="#EEF1F8">Un module e-learning complet, traduit</text><text x="64" y="150" font-size="18" font-weight="400" fill="#AEB6C6">Fichier SCORM, traduction IA, réimport LMS, sans toucher à la mise en page.</text><rect x="310" y="182" width="580" height="158" rx="16" fill="#11151E" stroke="#283450" stroke-width="1.5"/><path d="M326,182 h548 a16,16 0 0 1 16,16 v28 h-580 v-28 a16,16 0 0 1 16,-16 z" fill="#171c28"/><circle cx="336" cy="204" r="5" fill="#E5556A"/><circle cx="354" cy="204" r="5" fill="#E8B84B"/><circle cx="372" cy="204" r="5" fill="#3FB67E"/><text x="402" y="209" font-size="14" fill="#8A93A6">Module de formation · Français</text><text x="338" y="264" font-size="24" font-weight="700" fill="#EEF1F8">Sécurité incendie · Module 3</text><rect x="338" y="290" width="420" height="9" rx="4.5" fill="#2c3548"/><rect x="338" y="310" width="330" height="9" rx="4.5" fill="#2c3548"/><rect x="338" y="330" width="470" height="9" rx="4.5" fill="#2c3548"/><rect x="338" y="310" width="430" height="8" rx="4" fill="#222b3c"/><rect x="338" y="310" width="258" height="8" rx="4" fill="url(#blue)"/><text x="780" y="319" font-size="13" font-weight="600" fill="#7E9BF0">&#9654; En cours · 12/20</text><rect x="150" y="378" width="200" height="48" rx="24" fill="#141a26" stroke="#2b3550" stroke-width="1.5"/><circle cx="180" cy="402" r="14" fill="url(#blue)"/><text x="180" y="407" font-size="15" font-weight="700" fill="#fff" text-anchor="middle">1</text><text x="204" y="407" font-size="15.5" font-weight="600" fill="#D6DCEA">SCORM extrait</text><line x1="356" y1="402" x2="394" y2="402" stroke="#4F73D9" stroke-width="2.5" marker-end="url(#arrow)"/><rect x="400" y="378" width="200" height="48" rx="24" fill="#141a26" stroke="#2b3550" stroke-width="1.5"/><circle cx="430" cy="402" r="14" fill="url(#blue)"/><text x="430" y="407" font-size="15" font-weight="700" fill="#fff" text-anchor="middle">2</text><text x="454" y="407" font-size="15.5" font-weight="600" fill="#D6DCEA">Traduction IA</text><line x1="606" y1="402" x2="644" y2="402" stroke="#4F73D9" stroke-width="2.5" marker-end="url(#arrow)"/><rect x="650" y="378" width="200" height="48" rx="24" fill="#141a26" stroke="#2b3550" stroke-width="1.5"/><circle cx="680" cy="402" r="14" fill="url(#blue)"/><text x="680" y="407" font-size="15" font-weight="700" fill="#fff" text-anchor="middle">3</text><text x="704" y="407" font-size="15.5" font-weight="600" fill="#D6DCEA">Repackaging</text><line x1="856" y1="402" x2="894" y2="402" stroke="#4F73D9" stroke-width="2.5" marker-end="url(#arrow)"/><rect x="900" y="378" width="200" height="48" rx="24" fill="#141a26" stroke="#2b3550" stroke-width="1.5"/><circle cx="930" cy="402" r="14" fill="url(#blue)"/><text x="930" y="407" font-size="15" font-weight="700" fill="#fff" text-anchor="middle">4</text><text x="954" y="407" font-size="15.5" font-weight="600" fill="#D6DCEA">Réimport LMS</text><text x="600" y="372" font-size="13" fill="#6E7789" text-anchor="middle">&#8595;</text><text x="600" y="452" font-size="13" fill="#6E7789" text-anchor="middle">&#8595;</text><rect x="310" y="470" width="580" height="158" rx="16" fill="#11151E" stroke="#283450" stroke-width="1.5"/><path d="M326,470 h548 a16,16 0 0 1 16,16 v28 h-580 v-28 a16,16 0 0 1 16,-16 z" fill="#171c28"/><circle cx="336" cy="492" r="5" fill="#E5556A"/><circle cx="354" cy="492" r="5" fill="#E8B84B"/><circle cx="372" cy="492" r="5" fill="#3FB67E"/><text x="402" y="497" font-size="14" fill="#8A93A6">Training module · English</text><text x="338" y="552" font-size="24" font-weight="700" fill="#EEF1F8">Fire safety · Module 3</text><rect x="338" y="578" width="420" height="9" rx="4.5" fill="#2c3548"/><rect x="338" y="598" width="330" height="9" rx="4.5" fill="#2c3548"/><rect x="338" y="618" width="470" height="9" rx="4.5" fill="#2c3548"/><rect x="338" y="598" width="430" height="8" rx="4" fill="#222b3c"/><rect x="338" y="598" width="258" height="8" rx="4" fill="url(#blue)"/><text x="780" y="607" font-size="13" font-weight="600" fill="#7E9BF0">&#9654; In progress · 12/20</text><text x="600" y="676" font-size="16" fill="#8A93A6" text-anchor="middle">Même structure, même typographie, même progression : seul le contenu change de langue.</text></svg>